{"title":"The Muppets 2011 BRRip 720p x264 AAC [VX] [P2PDL]","uid":7707382,"size":665547262,"categoryP":"video","categoryS":"hd___movies","magnet":"?xt=urn:btih:2777dd74550dc009e7ea30ec8e2cf294c3f11d81&amp;dn=The+Muppets+2011+BRRip+720p+x264+AAC+%5BVX%5D+%5BP2PDL%5D&amp;tr=udp%3A%2F%2Ftracker.openbittorrent.com%3A80&amp;tr=udp%3A%2F%2Fopen.demonii.com%3A1337&amp;tr=udp%3A%2F%2Ftracker.coppersurfer.tk%3A6969&amp;tr=udp%3A%2F%2Fexodus.desync.com%3A6969","seeders":1,"leechers":0,"uploader":"Vitamin_X","files":-1,"time":1349717820,"description":"Cover: \n &lt;a href=&quot;\nhttp://www.shotpix.com/images/32409300381524351218.jpg&quot; rel=&quot;nofollow&quot; target=&quot;_NEW&quot;&gt;\nhttp://www.shotpix.com/images/32409300381524351218.jpg&lt;/a&gt;\n\n\nRelease Title: The Muppets (2011) \n\n\nRatings: 7.4/10 | \n &lt;a href=&quot;\nhttp://www.imdb.com/title/tt1204342/&quot; rel=&quot;nofollow&quot; target=&quot;_NEW&quot;&gt;\nhttp://www.imdb.com/title/tt1204342/&lt;/a&gt;\n\n\nPlot: With the help of three fans, The Muppets must reunite to save their old theater from a greedy oil tycoon.\n\nDirector: James Bobin\n\nWriters: Jason Segel &amp; Nicholas Stoller\n\nStars:   Amy Adams, Jason Segel and Chris Cooper\n\nGenres: Comedy | Family | Musical\n\n\n\t\t\t\t\t\n\n\nGeneral\nFormat                         : MPEG-4\nFormat profile                 : Base Media / Version 2\nFile size                      : 627 MiB\nDuration                       : 1h 42mn\nOverall bit rate mode          : Variable\nOverall bit rate               : 853 Kbps\n\nSource                         : The.Muppets.2011.720p.BluRay.x264-SPARKS (Thanks!)\n\nVideo\nID                             : 1\nFormat                         : AVC\nFormat/Info                    : Advanced Video Codec\nDuration                       : 1h 42mn\nBit rate mode                  : Variable\nBit rate                       : 752 Kbps\nWidth                          : 1 280 pixels\nHeight                         : 720 pixels\nDisplay aspect ratio           : 16:9\nFrame rate mode                : Variable\nFrame rate                     : 23.976 fps\nBit depth                      : 8 bits\nScan type                      : Progressive\nStream size                    : 552 MiB (88%)\nWriting library                : x264 core 125\n\n\nAudio\nID                             : 2\nFormat                         : AAC\nFormat/Info                    : Advanced Audio Codec\nFormat profile                 : LC\nDuration                       : 1h 42mn\nBit rate mode                  : Variable\nBit rate                       : 96.0 Kbps\nChannel(s)                     : 2 channels\nChannel positions              : Front: L R\nSampling rate                  : 48.0 KHz\nStream size                    : 70.4 MiB (11%)\nLanguage                       : English\n\nSubtitle                       : Yes (English)\n\n\nScreens:\n\n &lt;a href=&quot;\nhttp://www.shotpix.com/images/64026916326867255020.png&quot; rel=&quot;nofollow&quot; target=&quot;_NEW&quot;&gt;\nhttp://www.shotpix.com/images/64026916326867255020.png&lt;/a&gt; &lt;a href=&quot;\nhttp://www.shotpix.com/images/08519177202255058962.png&quot; rel=&quot;nofollow&quot; target=&quot;_NEW&quot;&gt;\nhttp://www.shotpix.com/images/08519177202255058962.png&lt;/a&gt; &lt;a href=&quot;\nhttp://www.shotpix.com/images/17261622157979250441.png&quot; rel=&quot;nofollow&quot; target=&quot;_NEW&quot;&gt;\nhttp://www.shotpix.com/images/17261622157979250441.png&lt;/a&gt; &lt;a href=&quot;\nhttp://www.shotpix.com/images/74320143668169413502.png&quot; rel=&quot;nofollow&quot; target=&quot;_NEW&quot;&gt;\nhttp://www.shotpix.com/images/74320143668169413502.png&lt;/a&gt; &lt;a href=&quot;\nhttp://www.shotpix.com/images/41265433211343112570.png&quot; rel=&quot;nofollow&quot; target=&quot;_NEW&quot;&gt;\nhttp://www.shotpix.com/images/41265433211343112570.png&lt;/a&gt; &lt;a href=&quot;\nhttp://www.shotpix.com/images/38020499204517591414.png&quot; rel=&quot;nofollow&quot; target=&quot;_NEW&quot;&gt;\nhttp://www.shotpix.com/images/38020499204517591414.png&lt;/a&gt;\n\n------------------------------------------------------------------------\n\n\nNotes:\n\n* Check sample for quality assurance.\n* Best played on VLC Media Player.\n* Install shark007 codecs in case of any kind of problem in playback (For non-VLC Media Player users).\n* Alternatively, install Core AVC codecs, the fastest decoder that there is coupled with Community Center Codec Pack and play on Windows Media Player Classic.\n* Read NFO.\n* Help in seeding this torrent as much as you can. \n\n\nGreets to: srkfan, VYTO, MgB, staff members at ExtraTorrent, TPB,KAT, 1337x, PublicHD, Ahashare,\nSilverTorrent, TorrentMafia, P2PDL, and all others\n\n\nEncoder Notes: Looking For Early Access To Anything You Can Provide DVDScr, R5, DVDRips, BluRay, Direct Audio, Early Music\nReleases, Seedboxes, Links, Dedicated Servers anything u can provide, Advance / Promo CDs/DVDs. If You Got anything to\noffer contact me at &quot;&lt;a class=&quot;__cf_email__&quot; href=&quot;/cdn-cgi/l/email-protection&quot; data-cfemail=&quot;14777b7a6075776054607d7a6d793a7161&quot;&gt;[email&amp;#160;protected]&lt;/a&gt;&lt;script cf-hash='f9e31' type=&quot;text/javascript&quot;&gt;\n/* &lt;![CDATA[ */!function(){try{var t=&quot;currentScript&quot;in document?document.currentScript:function(){for(var t=document.getElementsByTagName(&quot;script&quot;),e=t.length;e--;)if(t[e].getAttribute(&quot;cf-hash&quot;))return t[e]}();if(t&amp;&amp;t.previousSibling){var e,r,n,i,c=t.previousSibling,a=c.getAttribute(&quot;data-cfemail&quot;);if(a){for(e=&quot;&quot;,r=parseInt(a.substr(0,2),16),n=2;a.length-n;n+=2)i=parseInt(a.substr(n,2),16)^r,e+=String.fromCharCode(i);e=document.createTextNode(e),c.parentNode.replaceChild(e,c)}}}catch(u){}}();/* ]]&gt; */&lt;/script&gt;&quot;\n\n\nFacebook Fan Page: www . facebook . com / p2pdl\n\n\nEnhanced for best viewing experience. Enjoy!","torrent":{"xt":"urn:btih:2777dd74550dc009e7ea30ec8e2cf294c3f11d81","amp;dn":"The+Muppets+2011+BRRip+720p+x264+AAC+%5BVX%5D+%5BP2PDL%5D","amp;tr":["udp%3A%2F%2Ftracker.openbittorrent.com%3A80","udp%3A%2F%2Fopen.demonii.com%3A1337","udp%3A%2F%2Ftracker.coppersurfer.tk%3A6969","udp%3A%2F%2Fexodus.desync.com%3A6969"],"infoHash":"2777dd74550dc009e7ea30ec8e2cf294c3f11d81","infoHashBuffer":{"type":"Buffer","data":[39,119,221,116,85,13,192,9,231,234,48,236,142,44,242,148,195,241,29,129]},"announce":[],"urlList":[]}}